<svg width="24" height="24" viewBox="0 0 24 24" fill="none" xmlns="http://www.w3.org/2000/svg">
<g clip-path="url(#clip0_236_1543)">
<path d="M17.6129 15.5163C19.0653 13.5343 19.7159 11.077 19.4343 8.636C19.1528 6.19499 17.96 3.95028 16.0945 2.35097C14.2291 0.751654 11.8285 -0.0843218 9.37314 0.0102879C6.91777 0.104898 4.58867 1.12312 2.85179 2.86123C1.11492 4.59935 0.0983653 6.92919 0.00551259 9.38462C-0.0873401 11.8401 0.750353 14.24 2.351 16.1043C3.95165 17.9687 6.19721 19.1599 8.63842 19.4397C11.0796 19.7194 13.5365 19.0671 15.5174 17.6133H15.5159C15.5599 17.6733 15.6089 17.7308 15.6629 17.7858L21.4379 23.5608C21.7192 23.8422 22.1007 24.0004 22.4986 24.0006C22.8965 24.0007 23.2782 23.8428 23.5596 23.5615C23.8411 23.2803 23.9993 22.8987 23.9994 22.5008C23.9996 22.1029 23.8417 21.7212 23.5604 21.4398L17.7854 15.6648C17.7318 15.6105 17.6741 15.5618 17.6129 15.5163ZM17.9999 9.75027C17.9999 10.8337 17.7865 11.9065 17.3719 12.9074C16.9573 13.9083 16.3496 14.8178 15.5835 15.5839C14.8174 16.35 13.908 16.9577 12.907 17.3723C11.9061 17.7869 10.8333 18.0003 9.74989 18.0003C8.66648 18.0003 7.59369 17.7869 6.59275 17.3723C5.59182 16.9577 4.68234 16.35 3.91626 15.5839C3.15018 14.8178 2.54248 13.9083 2.12788 12.9074C1.71328 11.9065 1.49989 10.8337 1.49989 9.75027C1.49989 7.56224 2.36908 5.46382 3.91626 3.91664C5.46343 2.36947 7.56185 1.50027 9.74989 1.50027C11.9379 1.50027 14.0363 2.36947 15.5835 3.91664C17.1307 5.46382 17.9999 7.56224 17.9999 9.75027Z" fill="#4B4B4B"/>
</g>
<defs>
<clipPath id="clip0_236_1543">
<rect width="24" height="24" fill="white"/>
</clipPath>
</defs>
</svg>
